{
	"asset":{
		"generator":"Khronos glTF Blender I/O v3.5.30",
		"version":"2.0"
	},
	"extensionsUsed":[
		"KHR_materials_specular",
		"KHR_materials_ior"
	],
	"scene":0,
	"scenes":[
		{
			"name":"Scene",
			"nodes":[
				0,
				1,
				2,
				3,
				4,
				5,
				6,
				7
			]
		}
	],
	"nodes":[
		{
			"mesh":0,
			"name":"Plano.002"
		},
		{
			"mesh":1,
			"name":"Plano.003"
		},
		{
			"mesh":2,
			"name":"Plano.004"
		},
		{
			"mesh":3,
			"name":"Texto",
			"rotation":[
				0.5,
				-0.5,
				0.4999999403953552,
				0.5000000596046448
			],
			"scale":[
				0.4000000059604645,
				0.4000000059604645,
				0.4000000059604645
			],
			"translation":[
				-0.18543855845928192,
				-0.16908283531665802,
				-0.019031278789043427
			]
		},
		{
			"mesh":4,
			"name":"Texto.001",
			"rotation":[
				0.5,
				-0.5,
				0.4999999403953552,
				0.5000000596046448
			],
			"scale":[
				0.4000000059604645,
				0.4000000059604645,
				0.4000000059604645
			],
			"translation":[
				-0.009295254945755005,
				-0.16908283531665802,
				-0.386167973279953
			]
		},
		{
			"mesh":5,
			"name":"Texto.002",
			"rotation":[
				0.5,
				-0.5,
				0.4999999403953552,
				0.5000000596046448
			],
			"scale":[
				0.4000000059604645,
				0.4000000059604645,
				0.4000000059604645
			],
			"translation":[
				-0.1457993984222412,
				-0.020262330770492554,
				0.2748046815395355
			]
		},
		{
			"mesh":6,
			"name":"TQ_ARD-node"
		},
		{
			"mesh":7,
			"name":"Sphere",
			"translation":[
				-0.31062179803848267,
				0,
				0.043728314340114594
			]
		}
	],
	"materials":[
		{
			"doubleSided":true,
			"extensions":{
				"KHR_materials_specular":{
					"specularColorFactor":[
						0,
						0,
						0
					]
				},
				"KHR_materials_ior":{
					"ior":1.4500000476837158
				}
			},
			"name":"Material.002",
			"pbrMetallicRoughness":{
				"baseColorFactor":[
					0.4902293384075165,
					0.021092573180794716,
					0,
					1
				],
				"metallicFactor":0
			}
		},
		{
			"doubleSided":true,
			"extensions":{
				"KHR_materials_specular":{
					"specularColorFactor":[
						0,
						0,
						0
					]
				},
				"KHR_materials_ior":{
					"ior":0
				}
			},
			"name":"TQ_ARD_front",
			"pbrMetallicRoughness":{
				"baseColorTexture":{
					"index":0
				},
				"metallicFactor":0
			}
		},
		{
			"doubleSided":true,
			"extensions":{
				"KHR_materials_specular":{
					"specularColorFactor":[
						0,
						0,
						0
					]
				},
				"KHR_materials_ior":{
					"ior":0
				}
			},
			"name":"TQ_ARD_back",
			"pbrMetallicRoughness":{
				"baseColorFactor":[
					0.996078372001648,
					0.9019607901573181,
					0.6627451181411743,
					1
				],
				"metallicFactor":0,
				"roughnessFactor":0.5
			}
		},
		{
			"doubleSided":true,
			"extensions":{
				"KHR_materials_specular":{
					"specularColorFactor":[
						0,
						0,
						0
					]
				},
				"KHR_materials_ior":{
					"ior":0
				}
			},
			"name":"TQ_ARD_edge",
			"pbrMetallicRoughness":{
				"baseColorTexture":{
					"index":1
				},
				"metallicFactor":0,
				"roughnessFactor":0.5
			}
		},
		{
			"doubleSided":true,
			"name":"Material.001",
			"normalTexture":{
				"index":2
			},
			"pbrMetallicRoughness":{
				"metallicFactor":0,
				"roughnessFactor":0.5
			}
		}
	],
	"meshes":[
		{
			"name":"Plano",
			"primitives":[
				{
					"attributes":{
						"POSITION":0,
						"TEXCOORD_0":1,
						"NORMAL":2
					},
					"indices":3,
					"material":0
				}
			]
		},
		{
			"name":"Plano.001",
			"primitives":[
				{
					"attributes":{
						"POSITION":4,
						"TEXCOORD_0":5,
						"NORMAL":6
					},
					"indices":7,
					"material":0
				}
			]
		},
		{
			"name":"Plano.002",
			"primitives":[
				{
					"attributes":{
						"POSITION":8,
						"TEXCOORD_0":9,
						"NORMAL":10
					},
					"indices":11,
					"material":0
				}
			]
		},
		{
			"name":"Texto",
			"primitives":[
				{
					"attributes":{
						"POSITION":12,
						"TEXCOORD_0":13,
						"NORMAL":14
					},
					"indices":15,
					"material":0
				}
			]
		},
		{
			"name":"Texto.001",
			"primitives":[
				{
					"attributes":{
						"POSITION":16,
						"TEXCOORD_0":17,
						"NORMAL":18
					},
					"indices":19,
					"material":0
				}
			]
		},
		{
			"name":"Texto.002",
			"primitives":[
				{
					"attributes":{
						"POSITION":20,
						"TEXCOORD_0":21,
						"NORMAL":22
					},
					"indices":23,
					"material":0
				}
			]
		},
		{
			"name":"TQ_ARD-geom",
			"primitives":[
				{
					"attributes":{
						"POSITION":24,
						"TEXCOORD_0":25,
						"NORMAL":26
					},
					"indices":27,
					"material":1
				},
				{
					"attributes":{
						"POSITION":28,
						"TEXCOORD_0":29,
						"NORMAL":30
					},
					"indices":31,
					"material":2
				},
				{
					"attributes":{
						"POSITION":32,
						"TEXCOORD_0":33,
						"NORMAL":34
					},
					"indices":35,
					"material":3
				}
			]
		},
		{
			"name":"Sphere.002",
			"primitives":[
				{
					"attributes":{
						"POSITION":36,
						"TEXCOORD_0":37,
						"NORMAL":38
					},
					"indices":39,
					"material":4
				}
			]
		}
	],
	"textures":[
		{
			"sampler":0,
			"source":0
		},
		{
			"sampler":0,
			"source":1
		},
		{
			"sampler":0,
			"source":2
		}
	],
	"images":[
		{
			"bufferView":28,
			"mimeType":"image/jpeg",
			"name":"5_Mesa de trabajo 1"
		},
		{
			"bufferView":37,
			"mimeType":"image/png",
			"name":"TQ_ARD-I1"
		},
		{
			"bufferView":42,
			"mimeType":"image/png",
			"name":"aaa"
		}
	],
	"accessors":[
		{
			"bufferView":0,
			"componentType":5126,
			"count":144,
			"max":[
				-0.0720503032207489,
				-0.16780313849449158,
				0.2768195569515228
			],
			"min":[
				-0.13789761066436768,
				-0.16895711421966553,
				-0.2643454670906067
			],
			"type":"VEC3"
		},
		{
			"bufferView":1,
			"componentType":5126,
			"count":144,
			"type":"VEC2"
		},
		{
			"bufferView":2,
			"componentType":5126,
			"count":144,
			"type":"VEC3"
		},
		{
			"bufferView":3,
			"componentType":5123,
			"count":216,
			"type":"SCALAR"
		},
		{
			"bufferView":4,
			"componentType":5126,
			"count":144,
			"max":[
				0.057816099375486374,
				-0.16780313849449158,
				-0.26963216066360474
			],
			"min":[
				-0.06833784282207489,
				-0.16895711421966553,
				-0.3354794979095459
			],
			"type":"VEC3"
		},
		{
			"bufferView":5,
			"componentType":5126,
			"count":144,
			"type":"VEC2"
		},
		{
			"bufferView":6,
			"componentType":5126,
			"count":144,
			"type":"VEC3"
		},
		{
			"bufferView":7,
			"componentType":5123,
			"count":216,
			"type":"SCALAR"
		},
		{
			"bufferView":8,
			"componentType":5126,
			"count":144,
			"max":[
				-0.07201483845710754,
				0.15994708240032196,
				0.2766208052635193
			],
			"min":[
				-0.13786208629608154,
				-0.16865108907222748,
				0.2754668593406677
			],
			"type":"VEC3"
		},
		{
			"bufferView":9,
			"componentType":5126,
			"count":144,
			"type":"VEC2"
		},
		{
			"bufferView":10,
			"componentType":5126,
			"count":144,
			"type":"VEC3"
		},
		{
			"bufferView":11,
			"componentType":5123,
			"count":216,
			"type":"SCALAR"
		},
		{
			"bufferView":12,
			"componentType":5126,
			"count":773,
			"max":[
				0.08257199823856354,
				0.0010000000474974513,
				0.0005055429064668715
			],
			"min":[
				0.002808571560308337,
				-0.0010000000474974513,
				-0.03881445899605751
			],
			"type":"VEC3"
		},
		{
			"bufferView":13,
			"componentType":5126,
			"count":773,
			"type":"VEC2"
		},
		{
			"bufferView":14,
			"componentType":5126,
			"count":773,
			"type":"VEC3"
		},
		{
			"bufferView":15,
			"componentType":5123,
			"count":2256,
			"type":"SCALAR"
		},
		{
			"bufferView":16,
			"componentType":5126,
			"count":966,
			"max":[
				0.07998811453580856,
				0.0010000000474974513,
				0.0005055429064668715
			],
			"min":[
				0.01134662888944149,
				-0.0010000000474974513,
				-0.03881445899605751
			],
			"type":"VEC3"
		},
		{
			"bufferView":17,
			"componentType":5126,
			"count":966,
			"type":"VEC2"
		},
		{
			"bufferView":18,
			"componentType":5126,
			"count":966,
			"type":"VEC3"
		},
		{
			"bufferView":19,
			"componentType":5123,
			"count":2844,
			"type":"SCALAR"
		},
		{
			"bufferView":20,
			"componentType":5126,
			"count":1336,
			"max":[
				0.08257199823856354,
				0.0010000000474974513,
				0.0005055429064668715
			],
			"min":[
				0.0035949714947491884,
				-0.0010000000474974513,
				-0.03881445899605751
			],
			"type":"VEC3"
		},
		{
			"bufferView":21,
			"componentType":5126,
			"count":1336,
			"type":"VEC2"
		},
		{
			"bufferView":22,
			"componentType":5126,
			"count":1336,
			"type":"VEC3"
		},
		{
			"bufferView":23,
			"componentType":5123,
			"count":3960,
			"type":"SCALAR"
		},
		{
			"bufferView":24,
			"componentType":5126,
			"count":1177,
			"max":[
				0.05784919857978821,
				0.15849480032920837,
				0.2767472267150879
			],
			"min":[
				-0.06832586228847504,
				-0.16868025064468384,
				-0.26642778515815735
			],
			"type":"VEC3"
		},
		{
			"bufferView":25,
			"componentType":5126,
			"count":1177,
			"type":"VEC2"
		},
		{
			"bufferView":26,
			"componentType":5126,
			"count":1177,
			"type":"VEC3"
		},
		{
			"bufferView":27,
			"componentType":5123,
			"count":3330,
			"type":"SCALAR"
		},
		{
			"bufferView":29,
			"componentType":5126,
			"count":1096,
			"max":[
				0.05776172876358032,
				0.1565973460674286,
				0.2746948003768921
			],
			"min":[
				-0.06682774424552917,
				-0.16859278082847595,
				-0.26437532901763916
			],
			"type":"VEC3"
		},
		{
			"bufferView":30,
			"componentType":5126,
			"count":1096,
			"type":"VEC2"
		},
		{
			"bufferView":31,
			"componentType":5126,
			"count":1096,
			"type":"VEC3"
		},
		{
			"bufferView":32,
			"componentType":5123,
			"count":3330,
			"type":"SCALAR"
		},
		{
			"bufferView":33,
			"componentType":5126,
			"count":2017,
			"max":[
				0.05784919857978821,
				0.15849480032920837,
				0.2767472267150879
			],
			"min":[
				-0.06832586228847504,
				-0.16868025064468384,
				-0.26642778515815735
			],
			"type":"VEC3"
		},
		{
			"bufferView":34,
			"componentType":5126,
			"count":2017,
			"type":"VEC2"
		},
		{
			"bufferView":35,
			"componentType":5126,
			"count":2017,
			"type":"VEC3"
		},
		{
			"bufferView":36,
			"componentType":5123,
			"count":4230,
			"type":"SCALAR"
		},
		{
			"bufferView":38,
			"componentType":5126,
			"count":18916,
			"max":[
				0.31539082527160645,
				0.16683608293533325,
				0.029695481061935425
			],
			"min":[
				0.29605644941329956,
				0.14786431193351746,
				-0.10866555571556091
			],
			"type":"VEC3"
		},
		{
			"bufferView":39,
			"componentType":5126,
			"count":18916,
			"type":"VEC2"
		},
		{
			"bufferView":40,
			"componentType":5126,
			"count":18916,
			"type":"VEC3"
		},
		{
			"bufferView":41,
			"componentType":5123,
			"count":111936,
			"type":"SCALAR"
		}
	],
	"bufferViews":[
		{
			"buffer":0,
			"byteLength":1728,
			"byteOffset":0,
			"target":34962
		},
		{
			"buffer":0,
			"byteLength":1152,
			"byteOffset":1728,
			"target":34962
		},
		{
			"buffer":0,
			"byteLength":1728,
			"byteOffset":2880,
			"target":34962
		},
		{
			"buffer":0,
			"byteLength":432,
			"byteOffset":4608,
			"target":34963
		},
		{
			"buffer":0,
			"byteLength":1728,
			"byteOffset":5040,
			"target":34962
		},
		{
			"buffer":0,
			"byteLength":1152,
			"byteOffset":6768,
			"target":34962
		},
		{
			"buffer":0,
			"byteLength":1728,
			"byteOffset":7920,
			"target":34962
		},
		{
			"buffer":0,
			"byteLength":432,
			"byteOffset":9648,
			"target":34963
		},
		{
			"buffer":0,
			"byteLength":1728,
			"byteOffset":10080,
			"target":34962
		},
		{
			"buffer":0,
			"byteLength":1152,
			"byteOffset":11808,
			"target":34962
		},
		{
			"buffer":0,
			"byteLength":1728,
			"byteOffset":12960,
			"target":34962
		},
		{
			"buffer":0,
			"byteLength":432,
			"byteOffset":14688,
			"target":34963
		},
		{
			"buffer":0,
			"byteLength":9276,
			"byteOffset":15120,
			"target":34962
		},
		{
			"buffer":0,
			"byteLength":6184,
			"byteOffset":24396,
			"target":34962
		},
		{
			"buffer":0,
			"byteLength":9276,
			"byteOffset":30580,
			"target":34962
		},
		{
			"buffer":0,
			"byteLength":4512,
			"byteOffset":39856,
			"target":34963
		},
		{
			"buffer":0,
			"byteLength":11592,
			"byteOffset":44368,
			"target":34962
		},
		{
			"buffer":0,
			"byteLength":7728,
			"byteOffset":55960,
			"target":34962
		},
		{
			"buffer":0,
			"byteLength":11592,
			"byteOffset":63688,
			"target":34962
		},
		{
			"buffer":0,
			"byteLength":5688,
			"byteOffset":75280,
			"target":34963
		},
		{
			"buffer":0,
			"byteLength":16032,
			"byteOffset":80968,
			"target":34962
		},
		{
			"buffer":0,
			"byteLength":10688,
			"byteOffset":97000,
			"target":34962
		},
		{
			"buffer":0,
			"byteLength":16032,
			"byteOffset":107688,
			"target":34962
		},
		{
			"buffer":0,
			"byteLength":7920,
			"byteOffset":123720,
			"target":34963
		},
		{
			"buffer":0,
			"byteLength":14124,
			"byteOffset":131640,
			"target":34962
		},
		{
			"buffer":0,
			"byteLength":9416,
			"byteOffset":145764,
			"target":34962
		},
		{
			"buffer":0,
			"byteLength":14124,
			"byteOffset":155180,
			"target":34962
		},
		{
			"buffer":0,
			"byteLength":6660,
			"byteOffset":169304,
			"target":34963
		},
		{
			"buffer":0,
			"byteLength":1285738,
			"byteOffset":175964
		},
		{
			"buffer":0,
			"byteLength":13152,
			"byteOffset":1461704,
			"target":34962
		},
		{
			"buffer":0,
			"byteLength":8768,
			"byteOffset":1474856,
			"target":34962
		},
		{
			"buffer":0,
			"byteLength":13152,
			"byteOffset":1483624,
			"target":34962
		},
		{
			"buffer":0,
			"byteLength":6660,
			"byteOffset":1496776,
			"target":34963
		},
		{
			"buffer":0,
			"byteLength":24204,
			"byteOffset":1503436,
			"target":34962
		},
		{
			"buffer":0,
			"byteLength":16136,
			"byteOffset":1527640,
			"target":34962
		},
		{
			"buffer":0,
			"byteLength":24204,
			"byteOffset":1543776,
			"target":34962
		},
		{
			"buffer":0,
			"byteLength":8460,
			"byteOffset":1567980,
			"target":34963
		},
		{
			"buffer":0,
			"byteLength":767,
			"byteOffset":1576440
		},
		{
			"buffer":0,
			"byteLength":226992,
			"byteOffset":1577208,
			"target":34962
		},
		{
			"buffer":0,
			"byteLength":151328,
			"byteOffset":1804200,
			"target":34962
		},
		{
			"buffer":0,
			"byteLength":226992,
			"byteOffset":1955528,
			"target":34962
		},
		{
			"buffer":0,
			"byteLength":223872,
			"byteOffset":2182520,
			"target":34963
		},
		{
			"buffer":0,
			"byteLength":29130,
			"byteOffset":2406392
		}
	],
	"samplers":[
		{
			"magFilter":9729,
			"minFilter":9987
		}
	],
	"buffers":[
		{
			"byteLength":2435524,
			"uri":"data:application/octet-stream;base64,"
		}
	]
}
